<?xml version="1.0" encoding="UTF-8"?>
<!DOCTYPE svg PUBLIC "-//W3C//DTD SVG 1.1//EN" "http://www.w3.org/Graphics/SVG/1.1/DTD/svg11.dtd">
<svg xmlns="http://www.w3.org/2000/svg" xml:space="preserve" width="256px" height="256px" version="1.1" shape-rendering="geometricPrecision" text-rendering="geometricPrecision" image-rendering="optimizeQuality" fill-rule="evenodd" clip-rule="evenodd"
viewBox="0 0 256 256"
 xmlns:xlink="http://www.w3.org/1999/xlink">
 <g id="Слой_x0020_1">
  <rect fill="#4C6FA8" width="256" height="256"/>
  <path fill="white" d="M192 141l25 28c3,4 0,10 -5,10l-27 0c-4,0 -9,-2 -12,-5l-8 -8c-9,-8 -13,-10 -17,-10 -3,0 -4,2 -4,10 0,7 -2,13 -23,13 -21,0 -37,-16 -56,-41 -19,-24 -27,-51 -27,-51 -1,-3 2,-6 5,-6l22 0c4,0 8,2 10,6 2,4 5,10 10,19 7,12 15,18 19,20 1,1 3,0 3,-2l0 -30c0,-4 -1,-8 -4,-11l-3 -3c-1,-1 0,-3 1,-3l35 0c5,0 10,5 10,10l0 35c0,3 2,3 4,2l25 -38c2,-3 5,-5 9,-5l29 0c4,0 6,4 4,8l-26 41c-2,4 -2,8 1,11z"/>
 </g>
</svg>
